# xmcd
#
# Track frame offsets: 
#        183
#        14540
#        28498
#        42030
#        56895
#        70893
#        84910
#        97488
#        112313
#        125710
#        137780
#        151333
#        163670
#        177448
#        190803
#        203623
#
# Disc length: 2895 seconds
#
# Revision: 2
# Processed by: cddbd v1.5.2PL0 Copyright (c) Steve Scherf et al.
# Submitted via: ExactAudioCopyFreeDBPlugin 1.0
#
DISCID=ef0b4d10
DTITLE=Leroy Carr - Naptown Blues
DYEAR=1996
DGENRE=Blues
TTITLE0=I'm Going Away And Leave My Baby
TTITLE1=Tennessee Blues
TTITLE2=Truthful Blues
TTITLE3=You Don't Mean Me No Good
TTITLE4=Mean Old Train Blues
TTITLE5=Prison Bound Blues
TTITLE6=Naptown Blues
TTITLE7=Gettin' All Wet
TTITLE8=Carried Water For The Elephant
TTITLE9=Papa Wants A Cookie
TTITLE10=Four Day Rider
TTITLE11=Low Down Dog Blues
TTITLE12=What More Can I Do?
TTITLE13=I Keep The Blues
TTITLE14=Longing For My Sugar
TTITLE15=Bread Baker
EXTD=
EXTT0=
EXTT1=
EXTT2=
EXTT3=
EXTT4=
EXTT5=
EXTT6=
EXTT7=
EXTT8=
EXTT9=
EXTT10=
EXTT11=
EXTT12=
EXTT13=
EXTT14=
EXTT15=
PLAYORDER=
